<svg width="18" height="18" viewBox="0 0 18 18" fill="none" xmlns="http://www.w3.org/2000/svg">
<mask id="mask0_2002_776" style="mask-type:alpha" maskUnits="userSpaceOnUse" x="0" y="0" width="18" height="18">
<circle cx="9" cy="9" r="9" fill="#D9D9D9"/>
</mask>
<g mask="url(#mask0_2002_776)">
<path fill-rule="evenodd" clip-rule="evenodd" d="M-0.999987 7.27177e-06H23V18H-0.999987V7.27177e-06Z" fill="#73BE4A"/>
<path fill-rule="evenodd" clip-rule="evenodd" d="M-0.999987 7.27177e-06V12H23V7.27177e-06H-0.999987Z" fill="#AF0100"/>
<path d="M-0.999987 7.27177e-06H3.50001V18H-0.999987V7.27177e-06Z" fill="#F7FCFF"/>
<path d="M-0.25 16.5C0.164238 16.5 0.5 16.8358 0.5 17.25C0.499992 17.6642 0.164233 18 -0.25 18C-0.664147 18 -0.999992 17.6642 -1 17.25C-1 16.8358 -0.664152 16.5 -0.25 16.5Z" fill="#8F181A"/>
<path d="M2.75 16.5C3.16415 16.5 3.5 16.8358 3.5 17.25C3.49999 17.6642 3.16415 18 2.75 18C2.33578 18 2.00001 17.6642 2 17.25C2 16.8358 2.33577 16.5 2.75 16.5Z" fill="#8F181A"/>
<path d="M1.25 15C1.66423 15 2 15.3358 2 15.75C2 16.1642 1.66423 16.5 1.25 16.5C0.835859 16.5 0.5 16.1642 0.5 15.75C0.5 15.3358 0.835859 15 1.25 15Z" fill="#8F181A"/>
<path d="M-0.25 13.5C0.164226 13.5 0.49998 13.8358 0.5 14.25C0.5 14.6642 0.164238 15 -0.25 15C-0.664152 15 -1 14.6642 -1 14.25C-0.99998 13.8357 -0.664139 13.5 -0.25 13.5Z" fill="#8F181A"/>
<path d="M2.75 13.5C3.16414 13.5 3.49998 13.8357 3.5 14.25C3.5 14.6642 3.16415 15 2.75 15C2.33577 15 2 14.6642 2 14.25C2.00002 13.8358 2.33579 13.5 2.75 13.5Z" fill="#8F181A"/>
<path d="M1.25 12C1.66423 12 2 12.3358 2 12.75C1.99999 13.1642 1.66422 13.5 1.25 13.5C0.835864 13.5 0.500008 13.1642 0.5 12.75C0.5 12.3358 0.835859 12 1.25 12Z" fill="#8F181A"/>
<path d="M1.29688 8.21484L3.44238 6.08203L3.5 6V7.5L2.08203 9.02832L3.5 10.5V12L3.5332 12.0693L1.31836 9.85254L-0.671875 12L-0.999987 12L-1 10.5L0.486328 9.02051L-1 7.5332V6H-0.836914L1.29688 8.21484Z" fill="#8F181A"/>
<path d="M1.25 4.5C1.66423 4.50002 2 4.83583 2 5.25C2 5.66419 1.66423 5.99998 1.25 6C0.835861 6 0.500004 5.6642 0.5 5.25C0.5 4.83582 0.835859 4.5 1.25 4.5Z" fill="#8F181A"/>
<path d="M-0.25 3C0.164228 3.00001 0.499984 3.33575 0.5 3.75C0.5 4.1642 0.164238 4.49999 -0.25 4.5C-0.664152 4.5 -1 4.1642 -1 3.75C-0.999984 3.33574 -0.664142 3 -0.25 3Z" fill="#8F181A"/>
<path d="M2.75 3C3.16414 3 3.49998 3.33574 3.5 3.75C3.5 4.1642 3.16415 4.5 2.75 4.5C2.33577 4.49998 2 4.16419 2 3.75C2.00002 3.33576 2.33578 3.00002 2.75 3Z" fill="#8F181A"/>
<path d="M1.25 1.5C1.66423 1.50002 2 1.83581 2 2.25C2 2.66419 1.66423 2.99998 1.25 3C0.835859 3 0.5 2.6642 0.5 2.25C0.5 1.8358 0.835859 1.5 1.25 1.5Z" fill="#8F181A"/>
<path d="M-0.25 0C0.164234 8.93878e-06 0.499992 0.33581 0.5 0.75C0.5 1.1642 0.164238 1.49999 -0.25 1.5C-0.664152 1.5 -1 1.1642 -1 0.75C-0.999992 0.335804 -0.664147 0 -0.25 0Z" fill="#8F181A"/>
<path d="M2.75 0C3.16415 0 3.49999 0.335804 3.5 0.75C3.5 1.1642 3.16415 1.5 2.75 1.5C2.33577 1.49998 2 1.16419 2 0.75C2.00001 0.335819 2.33578 2.344e-05 2.75 0Z" fill="#8F181A"/>
<path d="M0.5 18L-0.999987 18L-1 16.5H0.5V18Z" fill="#8F181A"/>
<path d="M3.50001 18L2 18V16.5H3.5L3.50001 18Z" fill="#8F181A"/>
<path d="M0.5 15H-1V13.5H0.5V15Z" fill="#8F181A"/>
<path d="M0.5 12L-0.999987 12L-1 10.5H0.5V12Z" fill="#8F181A"/>
<path d="M0.5 7.5H-1V6H0.5V7.5Z" fill="#8F181A"/>
<path d="M0.5 4.5H-1V3H0.5V4.5Z" fill="#8F181A"/>
<path d="M0.5 1.5H-1L-0.999987 7.27177e-06L0.5 0V1.5Z" fill="#8F181A"/>
<path d="M3.5 1.5H2V0L3.50001 7.27177e-06L3.5 1.5Z" fill="#8F181A"/>
</g>
</svg>
