<svg width="18" height="18" viewBox="0 0 18 18" fill="none" xmlns="http://www.w3.org/2000/svg">
<mask id="mask0_2002_728" style="mask-type:alpha" maskUnits="userSpaceOnUse" x="0" y="0" width="18" height="18">
<path d="M18 9C18 13.9706 13.9706 18 9 18C4.02944 18 0 13.9706 0 9C0 4.02944 4.02944 0 9 0C13.9706 0 18 4.02944 18 9Z" fill="#D9D9D9"/>
</mask>
<g mask="url(#mask0_2002_728)">
<path fill-rule="evenodd" clip-rule="evenodd" d="M-4 0H20V18H-4V0Z" fill="#E31D1C"/>
<path d="M-4 1.5V3H20V1.5H-4Z" fill="#F7FCFF"/>
<path d="M-4 4.5V6H20V4.5H-4Z" fill="#F7FCFF"/>
<path d="M-4 9V7.5H20V9H-4Z" fill="#F7FCFF"/>
<path d="M-4 10.5V12H20V10.5H-4Z" fill="#F7FCFF"/>
<path d="M-4 15V13.5H20V15H-4Z" fill="#F7FCFF"/>
<path d="M-4 18V16.5H20V18H-4Z" fill="#F7FCFF"/>
<path d="M-4 0H9.5V10.5H-4V0Z" fill="#2E42A5"/>
<path d="M0.216134 3.07281L-0.239342 3.39212L-0.0855682 2.82387L-0.490116 2.46375H0.0382786L0.215497 2L0.423302 2.46375H0.873743L0.51982 2.82387L0.656838 3.39212L0.216134 3.07281Z" fill="#F7FCFF"/>
<path d="M-2.29375 3.07292L-2.74923 3.39223L-2.59545 2.82398L-3 2.46386H-2.47161L-2.29439 2.00011L-2.08658 2.46386H-1.63614L-1.99006 2.82398L-1.85305 3.39223L-2.29375 3.07292Z" fill="#F7FCFF"/>
<path d="M2.27054 3.39212L2.72602 3.07281L3.16672 3.39212L3.0297 2.82387L3.38363 2.46375H2.93319L2.72538 2L2.54816 2.46375H2.01977L2.42432 2.82387L2.27054 3.39212Z" fill="#F7FCFF"/>
<path d="M5.23613 3.07281L4.78065 3.39212L4.93442 2.82387L4.52988 2.46375H5.05827L5.23549 2L5.44329 2.46375H5.89374L5.53981 2.82387L5.67683 3.39212L5.23613 3.07281Z" fill="#F7FCFF"/>
<path d="M-2.74923 5.90201L-2.29375 5.58269L-1.85305 5.90201L-1.99006 5.33375L-1.63614 4.97364H-2.08658L-2.29439 4.50988L-2.47161 4.97364H-3L-2.59545 5.33375L-2.74923 5.90201Z" fill="#F7FCFF"/>
<path d="M0.216134 5.58269L-0.239342 5.90201L-0.0855682 5.33375L-0.490116 4.97364H0.0382786L0.215497 4.50988L0.423302 4.97364H0.873743L0.51982 5.33375L0.656838 5.90201L0.216134 5.58269Z" fill="#F7FCFF"/>
<path d="M2.27054 5.90201L2.72602 5.58269L3.16672 5.90201L3.0297 5.33375L3.38363 4.97364H2.93319L2.72538 4.50988L2.54816 4.97364H2.01977L2.42432 5.33375L2.27054 5.90201Z" fill="#F7FCFF"/>
<path d="M5.23613 5.58269L4.78065 5.90201L4.93442 5.33375L4.52988 4.97364H5.05827L5.23549 4.50988L5.44329 4.97364H5.89374L5.53981 5.33375L5.67683 5.90201L5.23613 5.58269Z" fill="#F7FCFF"/>
<path d="M-2.74923 8.41189L-2.29375 8.09257L-1.85305 8.41189L-1.99006 7.84364L-1.63614 7.48352H-2.08658L-2.29439 7.01977L-2.47161 7.48352H-3L-2.59545 7.84364L-2.74923 8.41189Z" fill="#F7FCFF"/>
<path d="M0.216134 8.09257L-0.239342 8.41189L-0.0855682 7.84364L-0.490116 7.48352H0.0382786L0.215497 7.01977L0.423302 7.48352H0.873743L0.51982 7.84364L0.656838 8.41189L0.216134 8.09257Z" fill="#F7FCFF"/>
<path d="M2.27054 8.41189L2.72602 8.09257L3.16672 8.41189L3.0297 7.84364L3.38363 7.48352H2.93319L2.72538 7.01977L2.54816 7.48352H2.01977L2.42432 7.84364L2.27054 8.41189Z" fill="#F7FCFF"/>
<path d="M5.23613 8.09257L4.78065 8.41189L4.93442 7.84364L4.52988 7.48352H5.05827L5.23549 7.01977L5.44329 7.48352H5.89374L5.53981 7.84364L5.67683 8.41189L5.23613 8.09257Z" fill="#F7FCFF"/>
<path d="M7.29053 3.39212L7.74601 3.07281L8.18672 3.39212L8.0497 2.82387L8.40362 2.46375H7.95318L7.74537 2L7.56816 2.46375H7.03976L7.44431 2.82387L7.29053 3.39212Z" fill="#F7FCFF"/>
<path d="M7.74601 5.58269L7.29053 5.90201L7.44431 5.33375L7.03976 4.97364H7.56816L7.74537 4.50988L7.95318 4.97364H8.40362L8.0497 5.33375L8.18672 5.90201L7.74601 5.58269Z" fill="#F7FCFF"/>
<path d="M7.29053 8.41189L7.74601 8.09257L8.18672 8.41189L8.0497 7.84364L8.40362 7.48352H7.95318L7.74537 7.01977L7.56816 7.48352H7.03976L7.44431 7.84364L7.29053 8.41189Z" fill="#F7FCFF"/>
<path d="M-1.03881 4.32797L-1.49428 4.64729L-1.34051 4.07904L-1.74506 3.71892H-1.21666L-1.03944 3.25517L-0.831641 3.71892H-0.381199L-0.735121 4.07904L-0.598104 4.64729L-1.03881 4.32797Z" fill="#F7FCFF"/>
<path d="M1.0156 4.64729L1.47108 4.32797L1.91178 4.64729L1.77476 4.07904L2.12868 3.71892H1.67824L1.47044 3.25517L1.29322 3.71892H0.764826L1.16937 4.07904L1.0156 4.64729Z" fill="#F7FCFF"/>
<path d="M3.98096 4.32797L3.52548 4.64729L3.67926 4.07904L3.27471 3.71892H3.8031L3.98032 3.25517L4.18813 3.71892H4.63857L4.28465 4.07904L4.42166 4.64729L3.98096 4.32797Z" fill="#F7FCFF"/>
<path d="M-1.49428 7.15717L-1.03881 6.83786L-0.598104 7.15717L-0.735121 6.58892L-0.381199 6.2288H-0.831641L-1.03944 5.76505L-1.21666 6.2288H-1.74506L-1.34051 6.58892L-1.49428 7.15717Z" fill="#F7FCFF"/>
<path d="M1.47108 6.83786L1.0156 7.15717L1.16937 6.58892L0.764826 6.2288H1.29322L1.47044 5.76505L1.67824 6.2288H2.12868L1.77476 6.58892L1.91178 7.15717L1.47108 6.83786Z" fill="#F7FCFF"/>
<path d="M3.52548 7.15717L3.98096 6.83786L4.42166 7.15717L4.28465 6.58892L4.63857 6.2288H4.18813L3.98032 5.76505L3.8031 6.2288H3.27471L3.67926 6.58892L3.52548 7.15717Z" fill="#F7FCFF"/>
<path d="M6.49107 4.32797L6.03559 4.64729L6.18937 4.07904L5.78482 3.71892H6.31321L6.49043 3.25517L6.69824 3.71892H7.14868L6.79475 4.07904L6.93177 4.64729L6.49107 4.32797Z" fill="#F7FCFF"/>
<path d="M6.03559 7.15717L6.49107 6.83786L6.93177 7.15717L6.79475 6.58892L7.14868 6.2288H6.69824L6.49043 5.76505L6.31321 6.2288H5.78482L6.18937 6.58892L6.03559 7.15717Z" fill="#F7FCFF"/>
</g>
</svg>
